<svg width="193" height="178" viewBox="0 0 193 178" fill="none" xmlns="http://www.w3.org/2000/svg">
<path d="M3.04079 0.000168674C1.51408 0.000168674 0.706787 1.32818 0.706787 2.33683V151.84C0.706787 153.064 1.81846 154.175 3.04079 154.177H124.083C128.892 167.781 141.822 177.537 157.042 177.537C176.344 177.537 192.042 161.821 192.042 142.497C192.042 127.262 182.298 114.317 168.709 109.5V2.33666C168.709 1.11293 167.597 0.00162685 166.375 0L3.04079 0.000168674ZM5.3748 4.67173H164.042V18.6885H5.3748V4.67173ZM5.3748 23.3601H164.042V108.186C161.786 107.728 159.431 107.456 157.041 107.456C141.824 107.456 128.893 117.211 124.082 130.816H5.37355L5.3748 23.3601ZM66.1125 49.0568V105.121C66.2297 107.729 68.4774 107.741 69.5402 107.164L116.132 79.1324C117.428 78.2769 117.428 75.8996 116.132 75.0441L69.5402 47.011C67.4439 46.1751 66.1108 46.9784 66.1125 49.0543V49.0568ZM70.6341 53.2184L110.521 77.0902L70.6341 100.962V53.2184ZM157.043 112.127C173.823 112.127 187.377 125.695 187.377 142.495C187.377 159.295 173.824 172.864 157.043 172.864C140.262 172.864 126.709 159.295 126.709 142.495C126.709 125.696 140.262 112.127 157.043 112.127ZM157.043 123.807C155.754 123.807 154.709 124.853 154.709 126.144V153.227L147.052 145.489C146.141 144.576 144.609 144.576 143.698 145.489C142.786 146.401 142.865 147.934 143.698 148.847C147.606 152.736 151.545 156.652 155.438 160.527C155.856 160.924 156.421 161.184 157.043 161.184C157.665 161.184 158.229 160.924 158.648 160.527C162.505 156.686 166.489 152.727 170.388 148.847C171.236 147.962 171.299 146.401 170.388 145.489C169.476 144.576 167.889 144.622 167.033 145.489L159.375 153.227V126.144C159.375 124.853 158.33 123.807 157.041 123.807H157.043ZM5.37564 135.487H122.772C122.314 137.745 122.043 140.103 122.043 142.495C122.043 144.886 122.314 147.245 122.772 149.504H5.37564V135.487Z" fill="white"/>
</svg>
