<svg width="132" height="174" viewBox="0 0 132 174" fill="none" xmlns="http://www.w3.org/2000/svg">
<path d="M121.016 124.764H26.0097C20.3441 124.756 15.755 119.841 15.7504 113.777V48.0605C15.723 42.4126 19.7268 37.6757 24.9798 37.1417C25.3147 37.0966 25.6507 37.0771 25.9879 37.0808H121.018C121.493 37.082 121.966 37.1198 122.437 37.1941C127.493 37.9658 131.253 42.5946 131.262 48.0605V113.777C131.258 119.834 126.677 124.747 121.018 124.764L121.016 124.764ZM26.0097 40.8788C25.8184 40.8642 25.6259 40.8642 25.4345 40.8788H25.3639C21.933 41.2482 19.3157 44.3309 19.3008 48.0212V113.741C19.3008 117.708 22.3034 120.925 26.0098 120.929H121.016C124.723 120.925 127.725 117.708 127.725 113.741V48.0618C127.721 44.4935 125.273 41.4692 121.974 40.9571C121.664 40.9059 121.351 40.8803 121.037 40.8803L26.0097 40.8788Z" fill="white"/>
<path d="M129.502 70.8377H17.5277C16.547 70.8377 15.752 69.988 15.752 68.9384V56.9564C15.752 55.9068 16.547 55.0559 17.5277 55.0559H129.502C130.483 55.0559 131.276 55.9068 131.276 56.9564V68.9384C131.276 69.4419 131.09 69.9259 130.757 70.2818C130.424 70.6378 129.972 70.8377 129.502 70.8377ZM19.3006 67.0391H127.726V58.8862H19.3006V67.0391Z" fill="white"/>
<path d="M95.9046 113.152C90.3291 113.156 85.3403 109.444 83.4015 103.848C81.4629 98.253 82.9846 91.9578 87.2149 88.0694C91.4465 84.1819 97.49 83.525 102.365 86.4213C102.929 86.7565 103.278 87.3916 103.278 88.0816C103.278 88.7715 102.929 89.4067 102.365 89.7419C99.2568 91.5851 97.3273 95.0899 97.3273 98.8944C97.3273 102.698 99.2568 106.203 102.365 108.047C102.929 108.381 103.278 109.017 103.278 109.706C103.278 110.396 102.929 111.031 102.365 111.366C100.388 112.537 98.1645 113.151 95.9046 113.152ZM95.9046 88.4348C92.172 88.4226 88.7595 90.6864 87.1079 94.2678C85.4563 97.8504 85.855 102.127 88.1353 105.289C90.4156 108.452 94.1791 109.949 97.8365 109.147C95.2373 106.46 93.7691 102.758 93.7691 98.8902C93.7691 95.0224 95.2374 91.3199 97.8365 88.6321C97.201 88.4943 96.5539 88.4287 95.9046 88.4348Z" fill="white"/>
<path d="M101.506 111.604C101.203 111.605 100.906 111.523 100.64 111.367C96.4088 108.851 93.7844 104.076 93.7844 98.8954C93.7844 93.7134 96.4088 88.9396 100.64 86.4221C101.179 86.1028 101.833 86.1028 102.373 86.4221C106.604 88.9395 109.229 93.7131 109.229 98.8954C109.229 104.076 106.604 108.851 102.373 111.367C102.107 111.523 101.809 111.605 101.506 111.604ZM101.506 90.328C98.8908 92.2858 97.3328 95.4869 97.3328 98.9028C97.3328 102.319 98.891 105.52 101.506 107.478C104.122 105.52 105.68 102.319 105.68 98.9028C105.68 95.4869 104.122 92.286 101.506 90.328Z" fill="white"/>
<path d="M107.102 113.152C104.844 113.151 102.623 112.536 100.648 111.366C100.085 111.031 99.7356 110.396 99.7356 109.706C99.7356 109.017 100.085 108.381 100.648 108.047C103.757 106.202 105.686 102.697 105.686 98.8942C105.686 95.0897 103.757 91.5848 100.648 89.7417C100.085 89.4065 99.7356 88.7713 99.7356 88.0814C99.7356 87.3914 100.085 86.7563 100.648 86.4211C105.524 83.5234 111.569 84.1829 115.801 88.0716C120.031 91.9604 121.55 98.258 119.61 103.853C117.67 109.449 112.678 113.159 107.102 113.152V113.152ZM105.163 109.148C108.819 109.95 112.583 108.453 114.863 105.292C117.144 102.131 117.543 97.8557 115.894 94.2728C114.245 90.6902 110.833 88.4252 107.102 88.4349C106.45 88.4336 105.801 88.5044 105.163 88.6482C107.768 91.3313 109.24 95.0348 109.24 98.9051C109.24 102.775 107.768 106.479 105.163 109.163L105.163 109.148Z" fill="white"/>
<path d="M97.6859 23.6991C96.7052 23.6991 95.9113 22.8482 95.9113 21.7986C95.9113 21.5402 95.8145 21.2915 95.6425 21.1087C95.4705 20.9258 95.237 20.8246 94.9944 20.8259H4.96547C4.46428 20.8259 4.05652 21.2623 4.05652 21.7987C4.05652 22.8483 3.26261 23.6991 2.28192 23.6991C1.30235 23.6991 0.507324 22.8482 0.507324 21.7987V15.1964C0.507324 6.8032 6.86432 0 14.7064 0H85.2628C93.1052 0 99.4619 6.80352 99.4619 15.1964V21.7987C99.4642 22.3033 99.2774 22.7873 98.9436 23.1445C98.611 23.5016 98.1588 23.7003 97.6873 23.6991L97.6859 23.6991ZM4.96561 17.0273H49.9801H94.9945C95.3009 17.0248 95.6051 17.0578 95.9035 17.126V15.1963C95.9035 8.90114 91.1354 3.79842 85.2546 3.79842H14.704C8.82197 3.79842 4.05415 8.90145 4.05415 15.1963V17.0955C4.35484 17.0382 4.65897 17.0151 4.9631 17.0273L4.96561 17.0273Z" fill="white"/>
<path d="M85.2643 174H14.7078C6.86549 174 0.508789 167.196 0.508789 158.804V134.192C0.508789 133.144 1.30384 132.293 2.28338 132.293C3.26409 132.293 4.05798 133.144 4.05798 134.192C4.05798 134.73 4.46575 135.165 4.96693 135.165H94.9959C95.4982 135.165 95.9048 134.73 95.9048 134.192C95.9048 133.144 96.6999 132.293 97.6805 132.293C98.6601 132.293 99.4551 133.144 99.4551 134.192V158.804C99.4551 167.194 93.1016 173.997 85.2628 174H85.2643ZM4.05892 138.867V158.804C4.05892 165.099 8.82702 170.202 14.7087 170.202H85.2652C91.1471 170.202 95.915 165.099 95.915 158.804V138.867C95.6154 138.934 95.3113 138.967 95.006 138.965H4.96833C4.66306 138.967 4.35896 138.934 4.05938 138.867H4.05892Z" fill="white"/>
<path d="M94.9948 138.967H4.96583C2.50211 138.967 0.504184 136.831 0.500977 134.194V21.8008C0.504394 19.1641 2.50226 17.0295 4.96583 17.0295H94.9948C97.4585 17.0295 99.4576 19.1641 99.4608 21.8008V38.9808C99.4608 40.0304 98.6657 40.88 97.6862 40.88H25.9809C25.7895 40.8654 25.597 40.8654 25.4056 40.88H25.335C21.9042 41.2494 19.2868 44.3322 19.272 48.0225V113.742C19.272 117.709 22.2745 120.926 25.9809 120.931H97.6862C98.6658 120.931 99.4608 121.78 99.4608 122.83V134.158C99.4688 135.431 99.0018 136.655 98.1635 137.559C97.3251 138.461 96.185 138.969 94.9947 138.969L94.9948 138.967ZM4.96583 20.8281C4.72436 20.8269 4.49085 20.9281 4.31884 21.1109C4.14685 21.2938 4.05004 21.5425 4.05004 21.8009V134.194C4.05004 134.454 4.14685 134.703 4.31884 134.885C4.49084 135.068 4.72433 135.169 4.96583 135.167H94.9948C95.2374 135.169 95.4709 135.068 95.6429 134.885C95.8149 134.703 95.9117 134.454 95.9117 134.194V124.765H26.0084C20.3428 124.756 15.7537 119.841 15.7491 113.778V48.0612C15.7217 42.4133 19.7255 37.6764 24.9785 37.1424C25.3134 37.0973 25.6494 37.0778 25.9865 37.0815H95.919V21.8008C95.919 21.5399 95.821 21.2912 95.6479 21.1084C95.4736 20.9255 95.239 20.8243 94.9952 20.828L4.96583 20.8281Z" fill="white"/>
<path d="M49.9846 163.805C46.3111 163.807 42.9978 161.441 41.59 157.811C40.1821 154.179 40.9578 149.998 43.5537 147.217C46.1506 144.435 50.0564 143.603 53.4506 145.107C56.845 146.61 59.0579 150.155 59.0579 154.086C59.0499 159.447 54.9938 163.791 49.9846 163.805ZM49.9846 148.174C47.7464 148.172 45.7268 149.613 44.8692 151.825C44.0115 154.038 44.4842 156.585 46.0663 158.279C47.6496 159.973 50.0302 160.479 52.0976 159.561C54.1649 158.642 55.5113 156.482 55.5078 154.086C55.4998 150.824 53.0314 148.183 49.9846 148.174Z" fill="white"/>
</svg>
