<svg width="122" height="164" viewBox="0 0 122 164" fill="none" xmlns="http://www.w3.org/2000/svg">
<path d="M121.347 103.617C120.705 100.19 119.113 97.013 116.751 94.4503C116.156 93.8013 115.513 93.1975 114.828 92.6436L113.125 91.2802C111.917 90.3947 110.777 89.3892 109.466 88.6047C108.155 87.8214 106.914 86.9002 105.603 86.1335L101.518 83.918V83.9191C95.8068 81.0748 89.7459 78.9958 83.4923 77.7336C80.2785 77.0835 77.0275 76.6341 73.7568 76.3869C72.0542 76.2847 70.353 76.2169 68.7524 76.2169H68.4295L67.9356 43.8409V37.6375C67.8833 37.0657 67.799 36.4964 67.6803 35.9342C66.9786 32.4075 64.9828 29.2718 62.0872 27.1443C59.1903 25.0178 55.6035 24.0552 52.0322 24.4461C48.4609 24.836 45.1662 26.5523 42.7964 29.2541C41.2019 30.9943 40.0621 33.1018 39.478 35.3885C39.3355 35.9508 39.2215 36.5189 39.1372 37.093C39.1372 37.6386 39.0351 38.3375 39.0185 38.7975V41.1664C38.3715 64.9187 37.8776 88.6046 37.4525 111.164C36.9349 110.779 36.4659 110.333 36.0563 109.835L32.0054 103.02C31.274 101.81 30.7112 100.771 29.6736 99.2545V99.2533C28.6775 97.89 27.5353 96.6396 26.2697 95.5222C23.818 93.3434 20.9091 91.7423 17.7594 90.8356C16.2112 90.3946 14.6179 90.1307 13.0103 90.0523C12.2172 90.0083 11.4217 90.0083 10.6275 90.0523C10.2357 90.0523 9.84509 90.0523 9.43547 90.1545H8.83947L8.03925 90.3078H8.04044C5.84757 90.7845 3.89804 92.0349 2.54824 93.8308C1.1995 95.6256 0.53819 97.8471 0.687789 100.089C0.754276 101.179 1.01902 102.247 1.47019 103.241L1.79313 103.922L2.01396 104.331L2.4568 105.149L4.15935 108.403L10.8995 120.98L23.1034 143.49C24.1458 145.468 25.51 147.258 27.1376 148.789C28.7439 150.23 30.5867 151.383 32.5848 152.196C33.5548 152.605 34.2873 152.877 35.1374 153.202L37.5369 154.105L42.1148 155.81H42.2691C43.8328 156.283 45.2159 157.222 46.2347 158.502C46.5956 158.95 46.9102 159.436 47.1702 159.95C47.2889 160.189 47.391 160.41 47.4932 160.665L47.8339 161.551L47.8351 161.552C48.0417 162.159 48.4869 162.656 49.0699 162.927C49.6516 163.197 50.3177 163.217 50.9149 162.983C51.9775 162.491 52.526 161.3 52.209 160.172L51.9371 159.269C51.8184 158.911 51.6984 158.519 51.5287 158.126H51.5275C51.1772 157.273 50.7308 156.461 50.2001 155.708C48.6555 153.518 46.4568 151.877 43.9195 151.021H44.1071L35.0186 146.898C33.6711 146.255 32.4446 145.384 31.3926 144.324C30.2873 143.172 29.3838 141.841 28.7201 140.389L17.4019 117.572L11.0702 104.86L9.3677 101.571L8.95926 100.736L8.75505 100.328V100.158V100.156C8.68975 100.007 8.66007 99.8426 8.66957 99.6798C8.666 99.032 9.12429 98.4734 9.75947 98.3509H10.2866H11.0358C11.5344 98.3224 12.0355 98.3224 12.5341 98.3509C13.5338 98.4222 14.5216 98.6112 15.4785 98.9131C17.428 99.5074 19.2197 100.532 20.7203 101.912C21.4671 102.613 22.1403 103.391 22.7292 104.23C23.2053 104.962 23.9722 106.309 24.6359 107.468L28.7546 114.659V114.658C28.8425 114.805 28.9386 114.948 29.0443 115.084C30.4975 117.043 32.3782 118.645 34.5414 119.77C35.8854 120.468 37.3552 120.885 38.8655 120.996C40.7853 121.125 42.6958 120.629 44.3115 119.582C45.5237 118.733 46.248 117.349 46.2515 115.868C47.0007 92.0122 47.6988 66.7072 48.3114 41.3693V39.0004C48.3162 38.5582 48.3732 38.1173 48.4812 37.6882C48.683 36.8882 49.0808 36.1501 49.6388 35.5415C50.7762 34.3208 52.4383 33.7325 54.09 33.9666C55.7415 34.2008 57.1744 35.2277 57.9285 36.7171C58.1101 37.0855 58.2478 37.4754 58.3369 37.876C58.3761 38.0792 58.4046 38.2837 58.4224 38.4893V39.3415L58.5245 44.0449L59.4767 80.9882C59.4695 81.1475 59.4695 81.3068 59.4767 81.466C59.6322 82.657 60.2626 83.7351 61.2243 84.4542C62.186 85.1733 63.3982 85.4717 64.5832 85.2827C65.7408 85.1294 67.34 85.0616 68.7529 85.0271C70.1658 84.9927 71.6807 85.0271 73.1269 85.0271H73.1281C76.0286 85.203 78.9161 85.5561 81.7749 86.0838C87.3337 87.087 92.7393 88.8046 97.8589 91.1949L101.518 93.086C102.71 93.7504 103.85 94.5004 104.922 95.1815C105.994 95.8626 107.135 96.7148 108.224 97.4649L109.841 98.6238L109.842 98.6249C110.26 98.9399 110.651 99.2882 111.016 99.6638C112.799 101.513 113.893 103.92 114.113 106.48V107.247V112.206L114.385 127.32V134.137V134.136C114.288 136.143 113.963 138.133 113.415 140.066C112.329 143.748 110.6 147.21 108.309 150.29C107.764 151.023 107.237 151.739 106.606 152.404L105.755 153.392C105.432 153.733 105.04 154.193 104.717 154.618C104.052 155.468 103.481 156.388 103.016 157.361C102.796 157.833 102.604 158.317 102.437 158.81L102.045 160.072H102.046C101.826 160.69 101.867 161.372 102.159 161.959C102.451 162.547 102.968 162.992 103.594 163.189C104.808 163.469 106.036 162.795 106.454 161.621L106.914 160.479V160.48C107.05 160.165 107.203 159.859 107.373 159.56C107.727 158.95 108.144 158.379 108.615 157.856C108.87 157.566 109.091 157.345 109.415 157.038C109.738 156.732 110.13 156.339 110.471 155.982C111.169 155.266 111.833 154.481 112.513 153.682C115.396 150.227 117.628 146.278 119.1 142.026C119.905 139.658 120.431 137.205 120.666 134.716L120.785 132.774V127.49L121.057 112.376V108.423L121.058 107.349V106.105C121.211 105.284 121.307 104.453 121.347 103.617L121.347 103.617Z" fill="white"/>
<path d="M92.6003 9.30267H92.8045V9.50711C92.9066 10.8193 93.0431 12.0805 93.2473 13.2559C93.4848 15.2421 94.0606 17.1724 94.9499 18.9637C95.7727 19.1265 96.6133 19.1836 97.4515 19.1349C98.1816 19.1753 98.9142 19.117 99.6301 18.9637C100.519 17.1725 101.095 15.2423 101.333 13.2559C101.52 12.0804 101.673 10.8193 101.776 9.50711H101.774C101.789 9.24562 101.789 8.98411 101.774 8.72263C101.796 8.40526 101.796 8.08674 101.774 7.76818C101.686 7.12276 101.526 6.48805 101.298 5.87711C100.377 3.36675 98.3965 1.39011 95.8854 0.476035C95.2751 0.252574 94.6411 0.0980512 93.9964 0.0160462C93.6782 -0.00534873 93.36 -0.00534873 93.0431 0.0160462H92.2773C90.9665 0.118268 89.7069 0.271598 88.5327 0.476035C86.5429 0.738719 84.6146 1.34374 82.8302 2.2649C82.6759 3.07314 82.6248 3.89688 82.677 4.7182C82.6343 5.42661 82.6865 6.13742 82.8302 6.83156C84.6147 7.75154 86.5428 8.35774 88.5327 8.62043C90.1154 9.04712 91.2895 9.20043 92.6003 9.30267Z" fill="white"/>
<path d="M6.06526 19.2705C6.87259 19.425 7.69657 19.4773 8.51578 19.4238C9.22339 19.4666 9.93339 19.4155 10.6267 19.2705C11.5386 17.5066 12.1429 15.599 12.4136 13.6305C12.6178 12.455 12.771 11.1939 12.873 9.88175V9.6773H13.0773C14.388 9.57508 15.6477 9.43839 16.8218 9.23396C18.8057 8.99624 20.735 8.42094 22.5243 7.53066C22.687 6.70577 22.744 5.86421 22.6941 5.02505C22.7345 4.29406 22.6775 3.56067 22.5243 2.84393C20.7351 1.95365 18.8059 1.37837 16.8218 1.14063C15.6476 0.952826 14.3879 0.799493 13.0773 0.697284H12.2949C11.9778 0.677077 11.6597 0.677077 11.3415 0.697284C10.6968 0.785241 10.0628 0.945706 9.45255 1.17392C6.94504 2.09748 4.97065 4.08009 4.05639 6.59294C3.83437 7.20507 3.68002 7.83863 3.59692 8.48523C3.57674 8.8026 3.57674 9.12113 3.59692 9.4385C3.58386 9.69405 3.58386 9.95079 3.59692 10.2051C3.69903 11.5174 3.85219 12.7785 4.05639 13.9539C4.43158 15.8248 5.10949 17.6206 6.06526 19.2705Z" fill="white"/>
<path d="M3.80103 56.8085C3.78084 57.1271 3.78084 57.4456 3.80103 57.763C3.91263 58.406 4.09547 59.0348 4.34599 59.6374C5.2673 62.1478 7.24768 64.1244 9.75887 65.0397C10.3691 65.262 11.0031 65.4165 11.6478 65.4997C11.966 65.5199 12.2842 65.5199 12.6012 65.4997H13.3669C14.6777 65.3975 15.9374 65.2441 17.1115 65.0397C19.1014 64.7758 21.0296 64.1708 22.814 63.2497C22.9684 62.4426 23.0194 61.6177 22.9672 60.7964C23.0099 60.0879 22.9589 59.3783 22.814 58.683C21.0296 57.763 19.1014 57.158 17.1115 56.8941C15.9373 56.6897 14.6776 56.5363 13.3669 56.4341H13.1627V56.2297C13.0606 54.9175 12.9241 53.6564 12.7199 52.4809C12.4836 50.4947 11.9078 48.5644 11.0185 46.7731C10.1946 46.6091 9.35397 46.552 8.51576 46.6019C7.7856 46.5615 7.05305 46.6186 6.33711 46.7731C5.44903 48.5643 4.87321 50.4945 4.63575 52.4809C4.44816 53.6564 4.295 54.9176 4.1929 56.2297C4.05281 56.4163 3.92221 56.6101 3.8011 56.8085L3.80103 56.8085Z" fill="white"/>
<path d="M83.1542 63.4024C84.9434 64.2927 86.8714 64.8691 88.8555 65.1069C90.0297 65.2947 91.2894 65.448 92.6001 65.5502H93.3836C93.7007 65.5704 94.0188 65.5704 94.337 65.5502C94.9817 65.4611 95.6157 65.3018 96.2259 65.0724C98.737 64.1465 100.711 62.1567 101.621 59.637C101.825 59.0296 101.963 58.4008 102.029 57.7625C102.051 57.4451 102.051 57.1266 102.029 56.808C102.044 56.5537 102.044 56.2969 102.029 56.0414C101.927 54.7292 101.774 53.4681 101.57 52.2926C101.307 50.3017 100.703 48.37 99.783 46.5848C98.9757 46.4303 98.1517 46.378 97.3325 46.4315C96.6249 46.3887 95.9149 46.4398 95.2215 46.5848C94.3311 48.376 93.7553 50.3062 93.519 52.2926C93.3148 53.4681 93.1616 54.7293 93.0595 56.0414V56.2458H92.8553C91.5446 56.3481 90.2849 56.4848 89.1108 56.6892C87.1269 56.9269 85.1988 57.5034 83.4095 58.3937C83.2468 59.2174 83.1898 60.0589 83.2385 60.8981C83.083 61.7242 83.0545 62.568 83.1542 63.4024Z" fill="white"/>
</svg>
