<svg width="143" height="152" viewBox="0 0 143 152" fill="none" xmlns="http://www.w3.org/2000/svg">
<path d="M135.142 128.735C134.959 128.836 116.618 138.842 99.525 126.009C98.4842 125.229 97.0258 125.356 96.1336 126.298C96.0708 126.364 90.0698 132.661 84.9504 134.965C71.562 133.03 53.6892 133.194 39.7586 143.273C38.5339 133.494 33.1714 120.545 18.4363 119.676C17.043 119.608 15.816 120.672 15.7335 122.084C15.6509 123.494 16.7267 124.706 18.1374 124.79C35.1962 125.794 34.9473 147.466 34.9298 148.385C34.9053 149.413 35.4985 150.356 36.4358 150.779C36.7731 150.93 37.1301 151.004 37.4848 151.004C38.1175 151.004 38.7421 150.769 39.2247 150.321C61.625 129.539 101.929 144.282 102.331 144.433C103.657 144.93 105.127 144.256 105.621 142.932C106.116 141.608 105.448 140.133 104.125 139.638C103.573 139.43 99.0932 137.793 92.4616 136.334C94.8237 134.583 96.9216 132.692 98.2697 131.394C117.418 144.234 136.793 133.672 137.635 133.204C138.868 132.514 139.307 130.954 138.619 129.718C137.932 128.487 136.373 128.043 135.139 128.735L135.142 128.735ZM100.26 103.016C100.121 102.989 99.9825 102.985 99.8452 102.981C95.4654 86.1314 95.3329 85.8345 95.1933 85.5293C95.0746 85.2836 94.9502 85.0251 78.567 61.598L77.1354 48.8289L92.5475 61.5723C94.1257 62.8775 96.1214 63.5982 98.1659 63.5982C100.811 63.5982 103.294 62.4281 104.975 60.3893C106.477 58.5706 107.181 56.2733 106.958 53.9228C106.735 51.5722 105.611 49.4494 103.794 47.9487L79.7581 28.0713C77.9392 26.5694 52.8871 22.9846 52.5406 22.9717C52.5255 22.9717 52.2649 22.9869 51.8137 23.0335C51.6265 23.0183 51.4381 23.0078 51.2473 23.0078C51.1985 23.0078 51.0299 23.0113 50.9822 23.0148L37.1215 23.8065L32.3415 12.3194C31.011 9.12687 27.9209 7.06486 24.4681 7.06486C23.3412 7.06486 22.2387 7.28608 21.192 7.72385C16.8541 9.53551 14.7944 14.5409 16.6016 18.8861L23.7051 35.955C25.096 39.2954 28.4535 41.3947 32.0611 41.1932L50.0619 40.1651C50.3178 42.5683 50.9179 48.0963 52.3239 60.9632L41.5998 69.1936C38.5493 71.5351 37.3653 75.5451 38.6551 79.1672L44.5537 95.7762C1.80911 92.6641 1.00823 98.524 0.713478 100.764C0.313394 103.819 2.59404 107.347 21.8125 112.434C34.6159 115.823 51.7876 119.018 70.1573 121.429C88.5303 123.842 105.941 125.187 119.184 125.218H119.667C139.111 125.218 142.176 122.419 142.575 119.387C142.869 117.145 143.651 111.184 100.259 103.016L100.26 103.016ZM43.4751 77.4491C42.9331 75.9262 43.4297 74.2413 44.7137 73.2565L56.5807 64.148C57.2902 63.6054 57.6647 62.7287 57.567 61.838C56.5552 52.5828 55.0305 38.5913 54.9828 38.1174C54.9595 37.3198 54.5676 36.5793 53.921 36.1113L52.9894 35.4395C52.5137 35.096 51.9357 34.9271 51.3484 34.9609L31.7682 36.0798L31.5739 36.0868C30.1935 36.0868 28.9596 35.2613 28.4282 33.9864L21.3247 16.9162C20.6013 15.1779 21.4259 13.1752 23.1623 12.4512C24.8777 11.7352 26.9163 12.5979 27.6201 14.2897L33.0977 27.451C33.5152 28.4547 34.5165 29.0846 35.6039 29.0228L51.2486 28.1286C51.3195 28.1286 51.3893 28.1368 51.4591 28.1426L51.687 28.1589C51.8336 28.1682 51.9813 28.1659 52.129 28.1507L52.4825 28.1123C63.0262 29.7272 74.5991 31.6623 76.8205 32.2828L100.537 51.897C101.301 52.5269 101.774 53.4187 101.867 54.4073C101.961 55.3958 101.664 56.3621 101.032 57.1259C99.7721 58.6547 97.3425 58.8945 95.8062 57.6243L75.5176 40.8477C74.7163 40.184 73.5917 40.0746 72.673 40.5694C71.7565 41.0654 71.232 42.0702 71.3483 43.1065L73.5208 62.4771C73.522 62.5667 73.5243 62.6657 73.5301 62.7286C73.5696 63.1733 73.7255 63.6018 73.9825 63.9686C80.0707 72.6742 89.1397 85.6632 90.5483 87.7345C91.0588 89.5566 93.4686 98.7792 94.9722 104.566C95.4839 106.55 94.2872 108.58 92.302 109.094C92.0019 109.172 91.696 109.21 91.3936 109.21H91.3739C89.684 109.21 88.2082 108.063 87.7848 106.422L83.8887 91.3157C83.812 91.0188 83.6829 90.7371 83.5061 90.4856L70.5794 72.0509C70.1386 71.4221 69.4397 71.0263 68.6756 70.9692L61.6371 70.4476C61.5731 70.4441 61.5103 70.4406 61.4486 70.4406C60.8881 70.4406 60.3403 70.6258 59.8926 70.9692L52.8507 76.3752C51.9703 77.0528 51.6249 78.2183 51.9971 79.2662L58.8272 98.4973C59.5122 100.43 58.5028 102.558 56.5699 103.247C54.7091 103.91 52.5005 102.871 51.8342 100.988L43.4751 77.4491ZM80.7921 99.7854C78.3044 99.4222 75.7912 99.0671 73.2549 98.7341C70.0879 98.3173 66.9422 97.94 63.8473 97.5896C63.7787 97.3195 63.7438 97.0505 63.6496 96.7827L57.4426 79.3063L62.2342 75.627L67.0919 75.9868L79.0557 93.045L80.7921 99.7854ZM70.8251 116.351C34.5948 111.595 11.518 105.062 6.543 101.539C10.2914 100.206 22.683 99.2103 46.4294 101.051L47.0156 102.701C48.2611 106.218 51.6035 108.582 55.3323 108.582C56.3464 108.582 57.3431 108.409 58.2909 108.069C60.8774 107.15 62.7324 105.12 63.5976 102.716C66.5597 103.052 69.5637 103.413 72.5898 103.812C75.83 104.237 79.0433 104.693 82.1811 105.166L82.8347 107.705C83.8407 111.609 87.3542 114.335 91.3687 114.335H91.3966C92.134 114.335 92.8724 114.24 93.5877 114.054C96.6418 113.265 98.8887 110.95 99.776 108.138C122.244 112.393 133.541 116.436 136.748 118.636C131.024 120.753 107.051 121.106 70.825 116.351L70.8251 116.351ZM66.3416 23.4297C72.9369 23.4297 78.3043 18.1739 78.3043 11.7142C78.3043 5.25577 72.9384 0 66.3416 0C59.7449 0 54.379 5.25577 54.379 11.7142C54.3802 18.1727 59.7449 23.4297 66.3416 23.4297ZM66.3416 5.11956C70.1168 5.11956 73.1894 8.07692 73.1894 11.713C73.1894 15.3492 70.1168 18.3077 66.3416 18.3077C62.5653 18.3077 59.4939 15.3492 59.4939 11.713C59.4951 8.07695 62.5665 5.11956 66.3416 5.11956V5.11956Z" fill="white"/>
</svg>
