<svg width="123" height="112" viewBox="0 0 123 112" fill="none" xmlns="http://www.w3.org/2000/svg">
<path d="M59.5858 90.4142C60.3668 91.1953 61.6332 91.1953 62.4142 90.4142L75.1421 77.6863C75.9232 76.9052 75.9232 75.6389 75.1421 74.8579C74.3611 74.0768 73.0948 74.0768 72.3137 74.8579L61 86.1716L49.6863 74.8579C48.9052 74.0768 47.6389 74.0768 46.8579 74.8579C46.0768 75.6389 46.0768 76.9052 46.8579 77.6863L59.5858 90.4142ZM59 56V89H63V56H59Z" fill="white"/>
<path d="M29.0028 0C24.4857 0 20.7038 3.70127 20.7038 8.22454C20.6931 8.97454 20.9827 9.69719 21.5082 10.2304C22.0337 10.7646 22.7503 11.0644 23.4991 11.0644C24.2479 11.0644 24.9645 10.7646 25.49 10.2304C26.0156 9.69719 26.3051 8.97454 26.2944 8.22454C26.2944 6.73333 27.4595 5.59953 29.003 5.59953H93.9973C95.5407 5.59953 96.7059 6.73333 96.7059 8.22454C96.6952 8.97454 96.9847 9.69719 97.5103 10.2304C98.0358 10.7646 98.7524 11.0644 99.5012 11.0644C100.25 11.0644 100.967 10.7646 101.492 10.2304C102.018 9.69719 102.307 8.97454 102.296 8.22454C102.296 3.70102 98.5146 0 93.9975 0H29.0028ZM20.1792 15.2246C14.8099 15.2246 10.3514 19.6113 10.3514 24.9814C10.3407 25.7304 10.6312 26.453 11.1558 26.9872C11.6813 27.5204 12.3989 27.8212 13.1467 27.8212C13.8955 27.8212 14.6121 27.5204 15.1376 26.9872C15.6631 26.453 15.9527 25.7304 15.943 24.9814C15.943 22.6435 17.7837 20.8251 20.1793 20.8251H102.82C105.215 20.8251 107.056 22.6435 107.056 24.9814C107.047 25.7304 107.336 26.453 107.862 26.9872C108.387 27.5204 109.104 27.8212 109.853 27.8212C110.6 27.8212 111.318 27.5204 111.843 26.9872C112.368 26.453 112.659 25.7304 112.648 24.9814C112.648 19.6113 108.189 15.2246 102.82 15.2246H20.1792ZM11.3565 30.9746C5.13415 30.9746 0 36.0459 0 42.2627V100.713C0 106.929 5.13415 112 11.3565 112H111.643C117.866 112 123 106.929 123 100.713V42.2627C123 36.0459 117.866 30.9746 111.643 30.9746H11.3565ZM11.3565 36.5752H111.643C114.891 36.5752 117.41 39.0792 117.41 42.2627V100.713C117.41 103.896 114.891 106.4 111.643 106.4H11.3565C8.10882 106.4 5.59041 103.896 5.59041 100.713V42.2627C5.59041 39.0792 8.10882 36.5752 11.3565 36.5752Z" fill="white"/>
</svg>
