<svg width="129" height="131" viewBox="0 0 129 131" fill="none" xmlns="http://www.w3.org/2000/svg">
<path d="M126.49 20.5367L108.035 2.87152C106.124 1.02565 103.62 0 101.021 0C98.4205 0 95.9162 1.02472 94.0059 2.87051L75.5509 20.5377C74.0098 22.0118 73.1058 24.0771 73.0437 26.2611C72.9817 28.4442 73.7673 30.5615 75.222 32.1292C76.6757 33.6968 78.6746 34.5818 80.7624 34.5818H86.0811V99.6554V99.6545C86.0811 100.677 86.4692 101.658 87.1599 102.38C87.8506 103.103 88.7884 103.509 89.7647 103.509H111.773C112.749 103.509 113.687 103.103 114.378 102.38C115.068 101.658 115.456 100.677 115.456 99.6545V34.5809H121.279V34.5818C123.367 34.5818 125.365 33.6968 126.819 32.1292C128.273 30.5616 129.059 28.4443 128.997 26.2603C128.935 24.0763 128.031 22.0119 126.489 20.5379L126.49 20.5367ZM121.609 26.6339C121.572 26.7893 121.43 26.8915 121.279 26.8709H111.773C110.796 26.8709 109.859 27.2771 109.168 27.9999C108.477 28.7227 108.089 29.7031 108.089 30.7259V95.7995L93.4486 95.7985V30.7249V30.7259C93.4486 29.7031 93.0605 28.7227 92.3698 27.9999C91.6791 27.2771 90.7423 26.8709 89.765 26.8709H80.7625C80.6159 26.8709 80.4853 26.7775 80.4317 26.6349C80.3791 26.4913 80.4148 26.3291 80.5229 26.2268L98.9779 8.55962H98.9789C100.131 7.44442 101.91 7.44442 103.062 8.55962L121.517 26.2268H121.518C121.643 26.3182 121.682 26.4933 121.609 26.6339L121.609 26.6339Z" fill="white"/>
<path d="M111.772 122.354H89.7643C88.4487 122.354 87.2328 123.088 86.5739 124.281C85.9161 125.474 85.9161 126.943 86.5739 128.136C87.2327 129.329 88.4486 130.064 89.7643 130.064H111.772C113.088 130.064 114.304 129.329 114.963 128.136C115.62 126.943 115.62 125.474 114.963 124.281C114.304 123.088 113.088 122.354 111.772 122.354Z" fill="white"/>
<path d="M111.772 109.076H89.7643C88.4487 109.076 87.2328 109.811 86.5739 111.004C85.9161 112.197 85.9161 113.666 86.5739 114.859C87.2327 116.052 88.4486 116.786 89.7643 116.786H111.772C113.088 116.786 114.304 116.052 114.963 114.859C115.62 113.666 115.62 112.197 114.963 111.004C114.304 109.811 113.088 109.076 111.772 109.076Z" fill="white"/>
<path d="M21.2929 74.5935H8.08338C5.93989 74.5964 3.88574 75.4884 2.3709 77.0737C0.85514 78.6599 0.00281462 80.8097 0 83.0528V126.211C0 127.234 0.388106 128.214 1.0788 128.937C1.77042 129.66 2.70731 130.066 3.68364 130.066H25.6925C26.6698 130.066 27.6067 129.66 28.2974 128.937C28.9881 128.214 29.3762 127.234 29.3762 126.211V83.0554C29.3743 80.8122 28.5211 78.6615 27.0062 77.0762C25.4905 75.4899 23.4353 74.5979 21.2928 74.595L21.2929 74.5935ZM22.0089 122.354H7.36832V83.0524C7.36832 82.6384 7.68876 82.304 8.08345 82.3031H21.2929C21.6876 82.304 22.0081 82.6384 22.009 83.0524L22.0089 122.354Z" fill="white"/>
<path d="M63.5387 50.1657H50.3293C48.1867 50.1686 46.1316 51.0606 44.6168 52.6458C43.101 54.2321 42.2487 56.3819 42.2468 58.625V126.211C42.2468 127.234 42.6349 128.214 43.3256 128.937C44.0163 129.66 44.9532 130.066 45.9305 130.066H67.9384C68.9157 130.066 69.8526 129.66 70.5433 128.937C71.2339 128.214 71.6221 127.234 71.6221 126.211V58.625C71.6202 56.3828 70.7679 54.2322 69.2521 52.6469C67.7363 51.0606 65.6821 50.1686 63.5387 50.1667L63.5387 50.1657ZM64.2548 122.356H49.6142V58.6246C49.6142 58.2116 49.9346 57.8762 50.3303 57.8762H63.5398C63.9344 57.8762 64.2549 58.2116 64.2549 58.6246L64.2548 122.356Z" fill="white"/>
</svg>
