<svg width="121" height="86" viewBox="0 0 121 86" fill="none" xmlns="http://www.w3.org/2000/svg">
<path d="M109.941 3.05176e-05H96.1073C94.4213 3.05176e-05 93.0537 1.51095 93.0537 3.37105C93.0537 5.23237 94.4224 6.74206 96.1073 6.74206H109.941C112.466 6.74206 114.522 9.0114 114.522 11.7993V27.0708C114.522 28.9321 115.891 30.4418 117.576 30.4418C119.262 30.4418 120.629 28.9309 120.629 27.0708V11.7993C120.629 5.2936 115.835 3.05176e-05 109.941 3.05176e-05Z" fill="white"/>
<path d="M24.522 0H10.6884C4.79408 0 0 5.29357 0 11.7993V27.0708C0 28.9321 1.36867 30.4418 3.05363 30.4418C4.73971 30.4418 6.10726 28.9308 6.10726 27.0708V11.7993C6.10726 9.01143 8.16294 6.74203 10.6884 6.74203H24.522C26.2081 6.74203 27.5756 5.23111 27.5756 3.37102C27.5767 1.51086 26.2102 0 24.522 0Z" fill="white"/>
<path d="M117.576 55.3077C115.89 55.3077 114.522 56.8186 114.522 58.6787V73.9501C114.522 76.738 112.466 79.0074 109.941 79.0074H96.1073C94.4213 79.0074 93.0537 80.5183 93.0537 82.3784C93.0537 84.2398 94.4224 85.7494 96.1073 85.7494H109.941C115.835 85.7494 120.629 80.4559 120.629 73.9501V58.6787C120.629 56.8174 119.262 55.3077 117.576 55.3077Z" fill="white"/>
<path d="M24.522 79.0092H10.6884C8.163 79.0092 6.10726 76.7399 6.10726 73.9519V58.6805C6.10726 56.8192 4.73859 55.3095 3.05363 55.3095C1.36755 55.3095 0 56.8204 0 58.6805V73.9519C0 80.4589 4.79517 85.7512 10.6884 85.7512H24.522C26.2081 85.7512 27.5756 84.2403 27.5756 82.3802C27.5767 80.5201 26.2102 79.0092 24.522 79.0092Z" fill="white"/>
<path d="M49.3799 18.6C50.6119 18.6 51.6385 18.7467 52.4599 19.04C53.2812 19.3187 53.8679 19.7953 54.2199 20.47C54.5865 21.13 54.6892 22.054 54.5279 23.242C54.4399 23.9167 54.2712 24.5107 54.0219 25.024C53.7872 25.5373 53.4352 25.9553 52.9659 26.278C52.4965 26.586 51.8805 26.784 51.1179 26.872L51.0959 27.004C51.3599 27.048 51.6165 27.158 51.8659 27.334C52.1152 27.51 52.3352 27.7593 52.5259 28.082C52.7165 28.39 52.8412 28.808 52.8999 29.336L53.6699 34H50.2159L49.5559 29.314C49.4972 28.8153 49.3652 28.4853 49.1599 28.324C48.9692 28.148 48.6759 28.06 48.2799 28.06C47.2385 28.0453 46.3805 28.038 45.7059 28.038C45.0312 28.038 44.4665 28.0307 44.0119 28.016C43.5572 28.0013 43.1392 27.9867 42.7579 27.972L43.0659 25.53H48.5219C49.1085 25.53 49.5779 25.464 49.9299 25.332C50.2819 25.2 50.5532 24.9653 50.7439 24.628C50.9345 24.276 51.0739 23.7993 51.1619 23.198C51.2499 22.67 51.2499 22.2593 51.1619 21.966C51.0739 21.658 50.8832 21.4453 50.5899 21.328C50.2965 21.196 49.8785 21.13 49.3359 21.13C47.9132 21.13 46.7179 21.1447 45.7499 21.174C44.7965 21.1887 44.1512 21.2033 43.8139 21.218L43.7259 18.82C44.3272 18.7467 44.8992 18.6953 45.4419 18.666C45.9845 18.6367 46.5639 18.622 47.1799 18.622C47.8105 18.6073 48.5439 18.6 49.3799 18.6ZM47.0039 18.82L44.8699 34H41.5919L43.7259 18.82H47.0039ZM60.6561 18.754C61.4921 18.754 62.3207 18.7613 63.1421 18.776C63.9781 18.776 64.7921 18.798 65.5841 18.842C66.3761 18.8713 67.1094 18.9227 67.7841 18.996L67.3881 21.416H61.7121C61.2867 21.416 60.9714 21.5113 60.7661 21.702C60.5607 21.878 60.4287 22.1787 60.3701 22.604L59.3141 30.26C59.2554 30.6413 59.3067 30.9273 59.4681 31.118C59.6294 31.3087 59.9154 31.404 60.3261 31.404H65.9361L65.8701 33.846C65.1954 33.934 64.4694 33.9853 63.6921 34C62.9294 34.0293 62.1521 34.044 61.3601 34.044C60.5827 34.0587 59.8201 34.066 59.0721 34.066C57.8987 34.066 57.0407 33.736 56.4981 33.076C55.9554 32.4013 55.7574 31.5287 55.9041 30.458L57.1141 21.746C57.2461 20.822 57.6127 20.096 58.2141 19.568C58.8154 19.0253 59.6294 18.754 60.6561 18.754ZM57.0921 24.936H66.0461L65.7601 27.29H56.7181L57.0921 24.936ZM75.669 18.556C76.3877 18.556 77.0037 18.578 77.517 18.622C78.0303 18.6513 78.4997 18.71 78.925 18.798C79.365 18.8713 79.805 18.974 80.245 19.106L79.805 21.548C79.3357 21.5187 78.8883 21.4967 78.463 21.482C78.0523 21.4673 77.6197 21.46 77.165 21.46C76.7103 21.4453 76.1677 21.438 75.537 21.438C74.965 21.438 74.481 21.5113 74.085 21.658C73.689 21.79 73.3443 22.0393 73.051 22.406C72.7723 22.758 72.5377 23.2713 72.347 23.946C72.1563 24.606 71.995 25.4713 71.863 26.542C71.687 27.8033 71.621 28.786 71.665 29.49C71.7237 30.194 71.929 30.6853 72.281 30.964C72.6477 31.2427 73.205 31.382 73.953 31.382C74.9943 31.382 75.8523 31.3673 76.527 31.338C77.2163 31.294 77.891 31.2427 78.551 31.184L78.705 33.67C77.9717 33.8753 77.2383 34.022 76.505 34.11C75.7717 34.2127 74.8843 34.264 73.843 34.264C72.2737 34.264 71.0343 34 70.125 33.472C69.2303 32.944 68.6437 32.1007 68.365 30.942C68.0863 29.7687 68.079 28.214 68.343 26.278C68.563 24.7967 68.849 23.5573 69.201 22.56C69.553 21.5627 70.0077 20.7707 70.565 20.184C71.1223 19.5973 71.819 19.1793 72.655 18.93C73.491 18.6807 74.4957 18.556 75.669 18.556Z" fill="white"/>
<circle cx="93.5" cy="26.5" r="8.5" fill="#E91B1B"/>
</svg>
