<svg width="150" height="150" viewBox="0 0 150 150" fill="none" xmlns="http://www.w3.org/2000/svg">
<path d="M149.996 75.0005C149.996 94.891 142.094 113.966 128.029 128.032C113.964 142.097 94.8862 149.998 74.9978 149.998C55.1094 149.998 36.0323 142.097 21.9663 128.032C7.90177 113.966 0 94.8889 0 75.0005C0.00717475 69.1699 0.709088 63.362 2.089 57.6979C2.31858 56.2212 3.15324 54.907 4.39322 54.0735C5.63324 53.2401 7.16501 52.9615 8.61916 53.307C10.0732 53.6514 11.3168 54.5877 12.0498 55.8887C12.784 57.1909 12.9407 58.7394 12.4815 60.1612C8.80931 75.2003 10.6412 91.0574 17.6435 104.86C24.6471 118.665 36.3598 129.51 50.6612 135.43C64.9651 141.349 80.914 141.955 95.6265 137.137C110.338 132.319 122.839 122.395 130.87 109.16C138.899 95.9266 141.928 80.2546 139.408 64.9813C136.887 49.7076 128.983 35.8406 117.126 25.8872C105.269 15.9348 90.2426 10.5551 74.7623 10.7189C59.2832 10.8839 44.3733 16.5828 32.7326 26.7851H48.2141C50.1285 26.7851 51.897 27.8062 52.8536 29.4636C53.8102 31.1209 53.8102 33.1633 52.8536 34.8206C51.897 36.4779 50.1285 37.4991 48.2141 37.4991H21.4289C20.0084 37.4991 18.6452 36.9347 17.6408 35.9303C16.6363 34.9259 16.0719 33.5627 16.0719 32.1421V5.35695C16.0719 3.44253 17.0931 1.67407 18.7504 0.717459C20.4078 -0.239153 22.4501 -0.239153 24.1075 0.717459C25.7648 1.67407 26.786 3.4426 26.786 5.35695V17.7859C41.4232 5.50052 60.1985 -0.732918 79.2787 0.356242C98.3571 1.44678 116.3 9.77757 129.445 23.6498C142.589 37.523 149.94 55.89 150 74.9977L149.996 75.0005ZM58.9261 101.464C57.2915 100.521 55.9343 99.1609 54.9931 97.5239C54.0533 95.8869 53.5618 94.0311 53.569 92.143V57.858C53.5761 55.3003 54.4993 52.8286 56.171 50.8915C57.8414 48.9543 60.1505 47.6797 62.6796 47.297C65.2098 46.9144 67.7927 47.4489 69.9618 48.8049L97.3365 65.8935C100.489 67.8474 102.406 71.2925 102.406 75.0005C102.406 78.7084 100.488 82.1535 97.3365 84.1074L69.9618 101.196C68.2626 102.272 66.2945 102.847 64.283 102.857C62.4057 102.87 60.5595 102.389 58.9261 101.464ZM64.2831 92.143L91.6579 75.0005L64.2831 57.858V92.143Z" fill="white"/>
</svg>
