<svg width="106" height="106" viewBox="0 0 106 106" fill="none" xmlns="http://www.w3.org/2000/svg">
<path d="M0.563252 51.4763C0.050856 52.4279 0.050856 53.5724 0.563252 54.5242C10.1029 72.8752 30.69 84.7512 52.9992 84.7512C75.3084 84.7512 95.8951 72.8758 105.435 54.5242C105.948 53.5726 105.948 52.428 105.435 51.4763C95.8955 33.1252 75.3084 21.2493 52.9992 21.2493C30.69 21.2493 10.1033 33.1247 0.563252 51.4763ZM52.9992 31.4688C58.7096 31.4688 64.1863 33.7372 68.2242 37.775C72.262 41.8129 74.5304 47.2897 74.5304 53C74.5304 58.7104 72.262 64.1872 68.2242 68.2251C64.1863 72.2629 58.7096 74.5313 52.9992 74.5313C47.2888 74.5313 41.812 72.2629 37.7742 68.2251C33.7363 64.1872 31.4679 58.7104 31.4679 53C31.4679 47.2897 33.7363 41.8129 37.7742 37.775C41.812 33.7372 47.2888 31.4688 52.9992 31.4688ZM98.7287 53C92.2568 63.8906 81.9207 71.9457 69.7775 75.5591C76.9311 70.2688 81.1516 61.898 81.1516 53C81.1516 44.1021 76.9311 35.7321 69.7775 30.441C81.9205 34.0544 92.257 42.1087 98.7287 53ZM36.2228 30.441C29.0691 35.7313 24.8486 44.1021 24.8486 53C24.8486 61.898 29.0691 70.268 36.2228 75.5591C24.0797 71.9457 13.7432 63.8914 7.27154 53C13.7434 42.1095 24.0795 34.0544 36.2228 30.441Z" fill="white"/>
<path d="M6.625 6.625H26.5V0H3.3125C2.4341 0 1.59117 0.349005 0.970089 0.970089C0.349005 1.59117 0 2.4341 0 3.3125V26.5H6.625V6.625Z" fill="white"/>
<path d="M102.688 0H79.5V6.625H99.375V26.5H106V3.3125C106 2.4341 105.651 1.59117 105.03 0.970089C104.409 0.349005 103.566 0 102.688 0Z" fill="white"/>
<path d="M3.3125 106H26.5V99.375H6.625V79.5H0V102.688C0 103.566 0.349005 104.409 0.970089 105.03C1.59117 105.651 2.4341 106 3.3125 106Z" fill="white"/>
<path d="M99.375 99.375H79.5V106H102.688C103.566 106 104.409 105.651 105.03 105.03C105.651 104.409 106 103.566 106 102.688V79.5H99.375V99.375Z" fill="white"/>
</svg>
