<svg width="101" height="102" viewBox="0 0 101 102" fill="none" xmlns="http://www.w3.org/2000/svg">
<path d="M50.434 35.6448C42.241 35.6448 35.5383 42.3482 35.5383 50.5404C35.5383 58.7334 42.2417 65.436 50.434 65.436C58.6269 65.436 65.3296 58.7326 65.3296 50.5404C65.3296 42.3474 58.6269 35.6448 50.434 35.6448ZM56.9244 51.817L47.88 57.4562C46.9225 58.0945 45.6452 57.3501 45.6452 56.1796L45.6459 45.0074C45.6459 43.837 46.9225 43.0926 47.8807 43.7309L56.9251 49.3701C57.8818 49.9022 57.8818 51.2856 56.9244 51.817Z" fill="white"/>
<path d="M84.482 68.0966C80.6516 68.0966 77.2471 69.3731 74.4802 71.5017L68.2028 65.2243C71.501 61.1809 73.5228 56.0739 73.5228 50.4347C73.5228 44.7955 71.501 39.5817 68.0966 35.5391L74.374 29.2617C77.1402 31.4965 80.6514 32.7729 84.4818 32.7729C93.5262 32.7729 100.974 25.4311 100.974 16.2807C100.974 7.12956 93.5262 0.000760126 84.4818 0.000760126C75.4382 0.000760126 67.9896 7.34255 67.9896 16.493C67.9896 20.3233 69.2662 23.8347 71.5008 26.6008L65.2234 32.8782C61.18 29.473 56.073 27.452 50.4338 27.452C44.7946 27.452 39.5808 29.4737 35.5382 32.8782L29.367 26.707C31.6017 23.9408 32.9844 20.3226 32.9844 16.4922C32.9844 7.44781 25.6426 0 16.4922 0C7.34179 0.00074214 0 7.34255 0 16.493C0 25.6434 7.34179 32.9851 16.386 32.9851C20.2164 32.9851 23.6208 31.7086 26.4938 29.58L32.7712 35.8574C29.366 39.9008 27.345 45.0078 27.345 50.753C27.345 56.3922 29.3668 61.606 32.878 65.6486L26.7068 71.8198C23.9406 69.585 20.4294 68.3086 16.599 68.3086C7.3416 68.0963 0 75.545 0 84.5886C0 93.6329 7.34179 101.081 16.386 101.081C25.4296 101.081 32.8782 93.739 32.8782 84.5886C32.8782 80.7582 31.6016 77.2468 29.367 74.4808L35.5382 68.3096C39.5816 71.7147 44.6886 73.7358 50.3278 73.7358C56.073 73.7358 61.1808 71.608 65.2234 68.2028L71.5008 74.4802C69.266 77.2464 67.8834 80.8646 67.8834 84.695C67.8834 93.7393 75.2252 101.187 84.3756 101.187C93.526 101.187 100.868 93.7393 100.868 84.5889C100.868 75.4385 93.526 68.0968 84.4818 68.0968L84.482 68.0966ZM84.482 74.0555C87.5672 74.0555 90.015 76.5025 90.015 79.5885C90.015 82.6737 87.568 85.1215 84.482 85.1215C81.3968 85.1215 78.949 82.6745 78.949 79.5885C78.949 76.5025 81.3968 74.0555 84.482 74.0555ZM84.482 5.95954C87.5672 5.95954 90.015 8.40655 90.015 11.4925C90.015 14.5778 87.568 17.0255 84.482 17.0255C81.3968 17.0255 78.949 14.5785 78.949 11.4925C78.949 8.40655 81.3968 5.95954 84.482 5.95954ZM75.3316 24.5795C75.3316 21.8133 77.1403 19.4725 79.5872 18.6213C80.9706 19.5788 82.6724 20.1109 84.482 20.1109C86.2907 20.1109 87.9932 19.5787 89.3767 18.6213C91.8238 19.4726 93.6324 21.8135 93.6324 24.5795V24.8987C91.3976 27.3457 88.0994 28.9421 84.482 28.9421C80.8646 28.9421 77.5664 27.3464 75.3316 24.8987V24.5795ZM16.386 5.95954C19.4712 5.95954 21.919 8.40655 21.919 11.4925C21.919 14.5778 19.472 17.0255 16.386 17.0255C13.3008 17.0255 10.853 14.5785 10.853 11.4925C10.853 8.40655 13.4068 5.95954 16.386 5.95954ZM7.23558 24.8987V24.5796C7.23558 21.8134 9.04428 19.4726 11.4912 18.6214C12.8746 19.5788 14.5764 20.1109 16.386 20.1109C18.1947 20.1109 19.8972 19.5788 21.2808 18.6214C23.7278 19.4727 25.5364 21.8136 25.5364 24.5796V24.8987C23.3016 27.3458 20.0034 28.9421 16.386 28.9421C12.7686 28.9421 9.57638 27.3464 7.23558 24.8987ZM16.386 74.0555C19.4712 74.0555 21.919 76.5025 21.919 79.5885C21.919 82.6737 19.472 85.1215 16.386 85.1215C13.3008 85.1215 10.853 82.6745 10.853 79.5885C10.853 76.5025 13.4068 74.0555 16.386 74.0555ZM25.5364 93.1011C23.3016 95.5481 20.0034 97.1445 16.386 97.1445C12.7686 97.1445 9.47036 95.5488 7.23558 93.1011V92.782C7.23558 90.0158 9.04428 87.675 11.4912 86.8238C12.8746 87.7812 14.5764 88.3133 16.386 88.3133C18.1947 88.3133 19.8972 87.7812 21.2808 86.8238C23.7278 87.6751 25.5364 90.016 25.5364 92.782V93.1011ZM31.2816 50.5411C31.2816 40.0073 39.8998 31.3891 50.4336 31.3891C60.9674 31.3891 69.5856 40.0073 69.5856 50.5411C69.5856 61.0749 60.9674 69.6931 50.4336 69.6931C39.8998 69.6931 31.2816 61.0749 31.2816 50.5411ZM93.632 93.1011C91.3972 95.5481 88.099 97.1445 84.4816 97.1445C80.8642 97.1445 77.566 95.5488 75.3312 93.1011V92.782C75.3312 90.0158 77.1399 87.675 79.5868 86.8238C80.9702 87.7812 82.672 88.3133 84.4816 88.3133C86.2903 88.3133 87.9928 87.7812 89.3764 86.8238C91.8234 87.6751 93.632 90.016 93.632 92.782V93.1011Z" fill="white"/>
</svg>
