<svg width="44" height="44" viewBox="0 0 44 44" fill="none" xmlns="http://www.w3.org/2000/svg">
<path d="M43.9998 12.0996C43.9998 10.6407 43.4204 9.24181 42.3888 8.21059C41.3575 7.179 39.9587 6.59961 38.4998 6.59961H35.1998V20.8992C35.1976 22.9407 34.3855 24.8979 32.9421 26.3417C31.4984 27.7851 29.5412 28.5972 27.4996 28.5994H16.9838L13.9589 32.3724H13.9585C14.7408 32.7882 15.6141 33.0033 16.4998 32.9996H28.0716L36.5416 43.5814L36.542 43.581C36.7464 43.8477 37.0642 44.0024 37.3998 43.9991C37.5239 43.9987 37.6465 43.9762 37.7629 43.9331C38.2027 43.7795 38.4981 43.3652 38.4999 42.8993V32.9992C39.9588 32.9992 41.3577 32.4194 42.3889 31.3882C43.4205 30.3566 43.9999 28.9577 43.9999 27.4988L43.9998 12.0996Z" fill="white"/>
<path d="M5.49978 26.4001V36.3002C5.50162 36.7661 5.797 37.1805 6.23676 37.3341C6.35315 37.3771 6.4758 37.3996 6.59992 37.4C6.93545 37.4033 7.2533 37.2486 7.45771 36.982L15.9281 26.4001H27.4999C28.9588 26.4001 30.3576 25.8204 31.3892 24.7892C32.4205 23.7576 33.0002 22.3587 33.0002 20.8998V5.49994C33.0002 4.04104 32.4205 2.6422 31.3892 1.61099C30.3576 0.579393 28.9588 0 27.4999 0H5.49994C4.04104 0 2.6422 0.579346 1.61099 1.61099C0.579393 2.6423 0 4.04104 0 5.49994V20.8998C0 22.3587 0.579346 23.7576 1.61099 24.7892C2.6423 25.8205 4.04104 26.4001 5.49994 26.4001L5.49978 26.4001ZM16.5002 20.9001V20.8998C16.0553 20.8998 15.6542 20.632 15.4837 20.221C15.3136 19.8099 15.4078 19.3367 15.7224 19.0221C16.0369 18.7076 16.5102 18.6133 16.9212 18.7835C17.3323 18.954 17.6 19.3551 17.6 19.8C17.6 20.0917 17.4844 20.3712 17.2781 20.5778C17.0715 20.7841 16.792 20.8997 16.5003 20.8997L16.5002 20.9001ZM13.6731 6.53364C14.6738 5.6858 16.0015 5.33073 17.2921 5.5657C18.1695 5.73327 18.976 6.16088 19.6077 6.79218C20.2394 7.42383 20.6666 8.23043 20.8342 9.10777C21.0162 10.0993 20.8523 11.1232 20.3694 12.0082C19.8869 12.8933 19.1153 13.5856 18.1831 13.9699C17.8115 14.1455 17.5816 14.5275 17.6001 14.9382V16.5001C17.6001 17.1075 17.1076 17.5999 16.5003 17.5999C15.8926 17.5999 15.4002 17.1075 15.4002 16.5001V14.9382C15.3876 14.3018 15.5648 13.676 15.9099 13.1409C16.2546 12.6061 16.7515 12.1862 17.3364 11.9351C17.8303 11.7321 18.2336 11.3564 18.4711 10.878C18.7083 10.3996 18.7635 9.85075 18.6262 9.33481C18.4891 8.81844 18.1687 8.36988 17.7253 8.07259C17.2815 7.77537 16.7449 7.64941 16.2152 7.71865C15.6855 7.78789 15.199 8.04718 14.8469 8.44864C14.4944 8.85009 14.2999 9.36573 14.2999 9.90018C14.2999 10.5075 13.8075 10.9999 13.2002 10.9999C12.5925 10.9999 12.1 10.5075 12.1 9.90018C12.0967 8.59969 12.6735 7.36547 13.6731 6.53386L13.6731 6.53364Z" fill="white"/>
</svg>
