<svg width="158" height="145" viewBox="0 0 158 145" fill="none" xmlns="http://www.w3.org/2000/svg">
<path d="M47.5401 16.3197C43.3372 16.3197 39.3057 17.8494 36.3328 20.5745C33.3613 23.2983 31.6909 26.9926 31.6909 30.846C31.6909 34.6985 33.3613 38.3938 36.3328 41.1176C39.3057 43.8426 43.3361 45.3724 47.5401 45.3724C51.743 45.3724 55.7731 43.8413 58.746 41.1176C61.7175 38.3925 63.3879 34.6982 63.3865 30.8448C63.3825 26.9936 61.7108 23.302 58.7391 20.5792C55.7689 17.8555 51.7413 16.3244 47.5398 16.3193L47.5401 16.3197ZM47.5401 39.2533C45.1073 39.2533 42.7744 38.368 41.054 36.7913C39.3338 35.2158 38.3667 33.0772 38.3667 30.8473C38.3667 28.6174 39.3325 26.4789 41.0527 24.902C42.7728 23.325 45.1045 22.4387 47.5374 22.4387C49.9701 22.4387 52.3031 23.324 54.0235 24.9008C55.7436 26.4775 56.7108 28.6148 56.7108 30.8448C56.7081 33.0734 55.7409 35.2105 54.0221 36.7862C52.3019 38.363 49.9716 39.2495 47.5402 39.2532L47.5401 39.2533Z" fill="white"/>
<path d="M145.761 0H12.239C8.99404 0.00246958 5.88227 1.18532 3.5884 3.28919C1.29308 5.39189 0.00275872 8.24416 0 11.2185V100.968C0.00269423 103.944 1.29315 106.795 3.5884 108.899C5.88238 111.001 8.99411 112.184 12.239 112.188H53.4095V138.705H47.8448C46.0061 138.711 44.519 140.079 44.519 141.764C44.519 143.45 46.0061 144.818 47.8448 144.824H110.154C111.994 144.818 113.481 143.45 113.481 141.764C113.481 140.079 111.994 138.711 110.154 138.705H104.591V112.188H145.761C149.006 112.184 152.118 111.001 154.412 108.899C156.707 106.795 157.997 103.944 158 100.968V11.2185C157.997 8.2441 156.707 5.3918 154.412 3.28919C152.118 1.18526 149.006 0.00252869 145.761 0ZM68.0858 70.1617C66.9045 70.6629 66.1475 71.747 66.1475 72.941V106.07H28.9289V59.6116C28.9303 57.883 30.4578 56.4829 32.3436 56.4804H62.7312C63.297 56.4878 63.852 56.6261 64.3436 56.8842C64.3935 56.9076 64.737 57.083 64.7868 57.1052C64.935 57.1805 65.0778 57.2669 65.2125 57.3608L83.5349 71.6687C84.7849 72.6479 86.6263 72.6454 87.8722 71.6638L107.123 56.5384C107.81 55.9951 108.704 55.7248 109.609 55.7865C110.514 55.8495 111.355 56.2396 111.945 56.8706C112.536 57.5027 112.829 58.3238 112.757 59.1523C112.687 59.9821 112.259 60.7513 111.569 61.2908L87.9355 79.8584C86.6464 80.8289 84.7902 80.8313 83.4985 79.8658L71.6501 70.6117C70.6614 69.8326 69.2672 69.6573 68.0859 70.161L68.0858 70.1617ZM97.9145 138.705H60.0855V112.188H97.9179L97.9145 138.705ZM151.323 100.967C151.322 102.321 150.736 103.616 149.692 104.573C148.649 105.528 147.235 106.067 145.76 106.068H72.8231V79.566L79.1688 84.5222C81.021 85.9063 83.3379 86.6607 85.7277 86.6571C88.1173 86.6546 90.4316 85.894 92.2796 84.5049L115.915 65.9361V65.9349C117.942 64.336 119.196 62.0666 119.401 59.6217C119.607 57.177 118.747 54.7581 117.011 52.8938L117.008 52.8914C115.264 51.0331 112.787 49.8836 110.119 49.6948C107.451 49.5071 104.812 50.2961 102.778 51.8901L85.6923 65.3165L69.5321 52.6952C69.1239 52.389 68.6929 52.1111 68.2389 51.8642C68.0153 51.737 67.7836 51.6197 67.5466 51.5135C66.0729 50.7616 64.4161 50.3653 62.7309 50.3603H32.3433C29.6667 50.3628 27.102 51.3382 25.2106 53.073C23.3194 54.8078 22.2552 57.1587 22.2525 59.6109V106.069H12.2387C10.7638 106.068 9.34936 105.53 8.30687 104.574C7.26294 103.617 6.67695 102.322 6.67561 100.969V11.2192C6.67696 9.86722 7.26291 8.57077 8.30687 7.61521C9.34946 6.65832 10.7639 6.12119 12.2387 6.11996H145.761C147.236 6.1212 148.65 6.65829 149.693 7.61521C150.736 8.57086 151.322 9.86732 151.324 11.2192L151.323 100.967Z" fill="white"/>
<path d="M136.861 16.3196H87.9039C86.0611 16.3196 84.5659 17.6889 84.5659 19.3792C84.5659 21.0695 86.0611 22.4388 87.9039 22.4388H136.861C138.705 22.4388 140.199 21.0695 140.199 19.3792C140.199 17.6889 138.705 16.3196 136.861 16.3196Z" fill="white"/>
<path d="M123.509 32.636H87.9039C86.0611 32.636 84.5659 34.0065 84.5659 35.6956C84.5659 37.3859 86.0611 38.7552 87.9039 38.7552H123.509C125.351 38.7552 126.847 37.3859 126.847 35.6956C126.847 34.0065 125.351 32.636 123.509 32.636Z" fill="white"/>
</svg>
