<svg id="Layer_1" data-name="Layer 1" xmlns="http://www.w3.org/2000/svg" viewBox="0 0 304 176"><defs><style>.cls-1{fill:none;stroke:#fff;stroke-linejoin:round;stroke-width:0.54px;}.cls-2,.cls-3{fill:#fff;}.cls-3{fill-rule:evenodd;}</style></defs><path class="cls-1" d="M125.38,24.76V151.24"/><path class="cls-2" d="M157.14,34.34q3.31.06,7,.39a44.41,44.41,0,0,1,7.2,1.24l-.53,5.53-6.47-.16c-2.45-.07-4.81-.1-7.06-.1-1.39,0-2.57,0-3.55.13a5.85,5.85,0,0,0-2.38.65,3.08,3.08,0,0,0-1.33,1.6,8.34,8.34,0,0,0-.42,3c0,2,.4,3.34,1.2,4.16a8.42,8.42,0,0,0,3.94,2l8.85,2.6q5.34,1.62,7.35,4.72a14.81,14.81,0,0,1,2,8.23,18.5,18.5,0,0,1-.91,6.32,8,8,0,0,1-2.8,3.84,12.33,12.33,0,0,1-5,2,39.57,39.57,0,0,1-7.35.59q-2.2,0-6.09-.26A64.31,64.31,0,0,1,142,79.38l.52-5.85,6.44.22c1.74.07,3.23.1,4.49.1H157a21.85,21.85,0,0,0,4.68-.39,3.42,3.42,0,0,0,2.38-1.63,7.58,7.58,0,0,0,.68-3.58,8.12,8.12,0,0,0-.49-3.15,3.68,3.68,0,0,0-1.59-1.79,10.94,10.94,0,0,0-2.86-1.11l-9.18-2.8c-3.39-1-5.76-2.58-7.13-4.62a14.49,14.49,0,0,1-2.05-8.2,18.14,18.14,0,0,1,.91-6.28,7.42,7.42,0,0,1,2.8-3.71A12.06,12.06,0,0,1,150,34.83,44,44,0,0,1,157.14,34.34Zm58,.85V62.52a29.45,29.45,0,0,1-1.62,10.75,10.78,10.78,0,0,1-5.34,5.85,22.74,22.74,0,0,1-10,1.83,24.87,24.87,0,0,1-10.42-1.83,11,11,0,0,1-5.63-5.85,27.83,27.83,0,0,1-1.72-10.75V35.19h8.14V62.52a23,23,0,0,0,.87,7,6.15,6.15,0,0,0,2.9,3.67,11.68,11.68,0,0,0,5.47,1.08,11.42,11.42,0,0,0,5.43-1.08,6.18,6.18,0,0,0,2.87-3.67,22.93,22.93,0,0,0,.88-7V35.19Zm26.24-.59a29.07,29.07,0,0,1,9.07,1.17,8.72,8.72,0,0,1,5.08,4q1.6,2.82,1.6,8a17.64,17.64,0,0,1-.82,5.76,7.72,7.72,0,0,1-2.67,3.78,10.23,10.23,0,0,1-5,1.78v.33a7.64,7.64,0,0,1,2.31,1,8,8,0,0,1,2.22,2.12A9.8,9.8,0,0,1,254.71,66l4.1,14.06h-8.59L246.5,66.24A6.3,6.3,0,0,0,244.56,63a5.48,5.48,0,0,0-3.39-1q-4.23,0-7.23,0t-5-.09c-1.32-.05-2.48-.07-3.48-.07l.2-6.19h15.49a14.85,14.85,0,0,0,4.62-.68,4.05,4.05,0,0,0,2.41-2.21,11.34,11.34,0,0,0,.71-4.53,10.88,10.88,0,0,0-.71-4.42,4.07,4.07,0,0,0-2.41-2.18,13.94,13.94,0,0,0-4.62-.62q-5.73,0-9.83.07c-2.73,0-4.6.08-5.6.12l-.91-6c1.74-.18,3.37-.31,4.91-.39s3.23-.15,5-.17S238.81,34.6,241.37,34.6Zm-8.53.59V80.1h-8V35.19Zm42.44-.13,6.73,0q3.42,0,6.77.13c2.24.06,4.31.21,6.22.42l-.39,6H278.07a4.21,4.21,0,0,0-2.93.91,3.81,3.81,0,0,0-1,2.87V80.1H266V43.78a8.23,8.23,0,0,1,2.54-6.41A9.58,9.58,0,0,1,275.28,35.06Zm-8.14,19.26h25v6h-25Z"/><path class="cls-2" d="M152.19,96.94h6.93c2.36,0,4.7,0,7,.13s4.47.22,6.51.39l-.39,6.05H154.66a3.6,3.6,0,0,0-2.7.92,4,4,0,0,0-.88,2.86v24.47a4,4,0,0,0,.88,2.87,3.64,3.64,0,0,0,2.7.91h17.58l.39,6.05q-3.06.25-6.51.36c-2.3.06-4.64.11-7,.13l-6.93,0a9.45,9.45,0,0,1-6.67-2.31,8.23,8.23,0,0,1-2.57-6.22V105.47a8.23,8.23,0,0,1,2.57-6.22A9.45,9.45,0,0,1,152.19,96.94Zm-8.07,18.55h25.64v6H144.12ZM213.7,97.07l-15.17,30.2H191l-15.23-30.2h8.53l8.33,17.57a18.71,18.71,0,0,1,1,2.67c.28,1,.57,1.87.88,2.73H195q.39-1.29.84-2.73c.31-1,.63-1.84,1-2.67l8.33-17.57Zm-14.9,25.06V142h-8.14V122.13Zm28.7-25.19h6.93q3.56,0,7,.13t6.51.39l-.39,6.05H230a3.6,3.6,0,0,0-2.7.92,4,4,0,0,0-.88,2.86v24.47a4,4,0,0,0,.88,2.87,3.64,3.64,0,0,0,2.7.91h17.58l.39,6.05q-3.06.25-6.51.36c-2.3.06-4.63.11-7,.13l-6.93,0a9.45,9.45,0,0,1-6.67-2.31,8.23,8.23,0,0,1-2.57-6.22V105.47a8.23,8.23,0,0,1,2.57-6.22A9.45,9.45,0,0,1,227.5,96.94Zm-8.07,18.55h25.64v6H219.43Z"/><path class="cls-3" d="M47.92,38.29a54,54,0,0,1,12.4-1.43A51.33,51.33,0,1,1,9,88.18,50.67,50.67,0,0,1,29.81,47.1a43.78,43.78,0,0,1,23.76-7A43.16,43.16,0,0,1,96.65,83.16a41,41,0,0,1-4,17.85A18.11,18.11,0,0,0,74.68,84.32a17.77,17.77,0,1,0,0,35.53,17.11,17.11,0,0,0,13.38-6.63c6.34-8.08,11-18.47,11-30.06A45.55,45.55,0,0,0,53.58,37.69a25.64,25.64,0,0,0-5.66.6Z"/></svg>