<svg width="937" height="399" viewBox="0 0 937 399" fill="none" xmlns="http://www.w3.org/2000/svg">
<path d="M403.214 0.928711V398.911" stroke="#2E3848" stroke-width="2.32749" stroke-miterlimit="10" stroke-linejoin="round"/>
<path d="M503.142 31.0725C510.107 31.2059 517.444 31.615 525.154 32.2999C532.869 32.9848 540.416 34.2819 547.792 36.1912L546.146 53.6019C540.279 53.4625 533.488 53.2928 525.772 53.0927C518.056 52.8867 510.649 52.7836 503.552 52.7836C499.181 52.7836 495.46 52.92 492.387 53.1927C489.314 53.4655 486.82 54.1474 484.904 55.2384C482.995 56.3294 481.595 58.0023 480.704 60.257C479.819 62.5118 479.377 65.6181 479.377 69.5761C479.377 75.7221 480.64 80.0922 483.168 82.6864C485.695 85.2806 489.826 87.3292 495.56 88.8324L523.417 97.0241C534.612 100.437 542.325 105.385 546.555 111.871C550.792 118.356 552.911 126.994 552.911 137.782C552.911 145.838 551.953 152.46 550.038 157.648C548.128 162.836 545.192 166.864 541.228 169.731C537.27 172.598 532.081 174.646 525.663 175.877C519.25 177.107 511.537 177.722 502.524 177.722C497.881 177.722 491.496 177.45 483.368 176.904C475.246 176.359 465.997 174.992 455.62 172.804L457.256 154.375C465.312 154.648 472.07 154.887 477.531 155.093C482.998 155.293 487.711 155.393 491.669 155.393C495.627 155.393 499.315 155.393 502.733 155.393C509.013 155.393 513.925 154.984 517.471 154.166C521.023 153.347 523.514 151.641 524.944 149.047C526.381 146.453 527.099 142.698 527.099 137.782C527.099 133.552 526.587 130.242 525.563 127.854C524.538 125.46 522.865 123.581 520.544 122.217C518.223 120.847 515.219 119.687 511.534 118.735L482.659 109.925C472.009 106.646 464.533 101.8 460.229 95.3876C455.926 88.9688 453.774 80.365 453.774 69.5761C453.774 61.5208 454.729 54.9323 456.638 49.8106C458.553 44.6889 461.49 40.7977 465.448 38.1368C469.412 35.4759 474.5 33.6334 480.713 32.609C486.926 31.5847 494.402 31.0725 503.142 31.0725ZM685.628 33.7364V119.753C685.628 133.821 683.922 145.089 680.51 153.557C677.097 162.018 671.5 168.161 663.717 171.986C655.935 175.81 645.488 177.722 632.378 177.722C618.722 177.722 607.797 175.81 599.602 171.986C591.414 168.161 585.51 162.018 581.891 153.557C578.273 145.089 576.464 133.821 576.464 119.753V33.7364H602.066V119.753C602.066 129.039 602.987 136.416 604.83 141.883C606.673 147.344 609.709 151.202 613.94 153.457C618.177 155.705 623.913 156.83 631.151 156.83C638.388 156.83 644.088 155.705 648.252 153.457C652.416 151.202 655.419 147.344 657.262 141.883C659.105 136.416 660.026 129.039 660.026 119.753V33.7364H685.628ZM768.176 31.8908C779.917 31.8908 789.439 33.1212 796.743 35.582C804.052 38.0368 809.38 42.2341 812.726 48.1741C816.072 54.114 817.745 62.4785 817.745 73.2673C817.745 80.365 816.89 86.4079 815.181 91.3963C813.472 96.3786 810.671 100.337 806.78 103.27C802.889 106.204 797.667 108.08 791.115 108.898V109.925C793.436 110.471 795.858 111.528 798.379 113.098C800.907 114.668 803.228 116.89 805.344 119.763C807.465 122.629 809.071 126.315 810.162 130.818L823.063 175.059H796.034L784.351 131.436C782.854 126.521 780.808 123.072 778.214 121.09C775.62 119.108 772.068 118.117 767.558 118.117C758.685 118.117 751.105 118.084 744.82 118.017C738.54 117.95 733.319 117.85 729.155 117.717C724.991 117.577 721.339 117.508 718.199 117.508L718.817 98.0424H767.558C773.704 97.909 778.55 97.1938 782.096 95.8967C785.648 94.5996 788.175 92.2782 789.678 88.9324C791.182 85.5867 791.933 80.8408 791.933 74.6947C791.933 68.6881 791.182 64.0483 789.678 60.7753C788.175 57.4962 785.648 55.2081 782.096 53.911C778.55 52.6139 773.704 51.9654 767.558 51.9654C755.545 51.9654 745.235 52.0351 736.628 52.1745C728.027 52.3078 722.157 52.4412 719.017 52.5745L716.153 33.7364C721.615 33.1909 726.767 32.7818 731.609 32.509C736.458 32.2302 741.75 32.0574 747.484 31.9908C753.224 31.9241 760.121 31.8908 768.176 31.8908ZM741.347 33.7364V175.059H716.153V33.7364H741.347ZM874.889 33.3273C881.853 33.3273 888.917 33.3606 896.082 33.4273C903.252 33.4939 910.353 33.6303 917.384 33.8364C924.415 34.0425 930.936 34.4849 936.949 35.1638L935.713 54.011H883.69C879.592 54.011 876.519 54.9687 874.471 56.884C872.428 58.7933 871.407 61.7966 871.407 65.8939V175.059H845.804V60.7662C845.804 52.1654 848.465 45.4435 853.787 40.6007C859.115 35.7517 866.149 33.3273 874.889 33.3273ZM849.286 93.9511H927.93V112.789H849.286V93.9511Z" fill="#2E3848"/>
<path d="M487.567 228.048C494.671 228.048 501.941 228.048 509.379 228.048C516.822 228.048 524.162 228.184 531.399 228.457C538.636 228.73 545.464 229.139 551.882 229.684L550.655 248.732H495.359C491.534 248.732 488.698 249.689 486.849 251.605C485.007 253.514 484.085 256.517 484.085 260.615V337.622C484.085 341.719 485.007 344.725 486.849 346.641C488.698 348.55 491.534 349.505 495.359 349.505H550.655L551.882 368.552C545.464 369.097 538.636 369.473 531.399 369.679C524.162 369.885 516.822 370.022 509.379 370.088C501.941 370.155 494.671 370.188 487.567 370.188C478.833 370.188 471.836 367.767 466.575 362.924C461.32 358.075 458.622 351.553 458.483 343.359V254.878C458.622 246.683 461.32 240.164 466.575 235.321C471.836 230.472 478.833 228.048 487.567 228.048ZM462.174 286.417H542.873V305.264H462.174V286.417ZM681.121 228.457L633.399 323.493H609.642L561.719 228.457H588.549L614.761 283.753C615.991 286.347 617.049 289.147 617.934 292.154C618.825 295.16 619.749 298.027 620.707 300.755H622.343C623.161 298.027 624.046 295.16 624.998 292.154C625.956 289.147 626.983 286.347 628.08 283.753L654.292 228.457H681.121ZM634.226 307.31V369.779H608.624V307.31H634.226ZM724.543 228.048C731.647 228.048 738.917 228.048 746.354 228.048C753.797 228.048 761.137 228.184 768.374 228.457C775.611 228.73 782.439 229.139 788.858 229.684L787.631 248.732H732.335C728.51 248.732 725.673 249.689 723.825 251.605C721.982 253.514 721.061 256.517 721.061 260.615V337.622C721.061 341.719 721.982 344.725 723.825 346.641C725.673 348.55 728.51 349.505 732.335 349.505H787.631L788.858 368.552C782.439 369.097 775.611 369.473 768.374 369.679C761.137 369.885 753.797 370.022 746.354 370.088C738.917 370.155 731.647 370.188 724.543 370.188C715.809 370.188 708.811 367.767 703.55 362.924C698.295 358.075 695.598 351.553 695.458 343.359V254.878C695.598 246.683 698.295 240.164 703.55 235.321C708.811 230.472 715.809 228.048 724.543 228.048ZM699.15 286.417H779.848V305.264H699.15V286.417Z" fill="#2E3848"/>
<path fill-rule="evenodd" clip-rule="evenodd" d="M159.478 43.4895C169.753 40.9537 183.908 39 198.5 39C287.45 39 360 111.55 360 200.5C360 289.455 287.45 362 198.5 362C109.55 362 37 289.45 37 200.5C37 147.051 63.1885 99.5303 102.484 71.2316C123.207 57.7177 149.268 49.1559 177.261 49.1559C251.912 49.1559 312.795 110.039 312.795 184.69C312.795 204.517 308.499 223.372 300.139 240.871C297.984 211.9 273.49 188.331 243.663 188.331C212.867 188.331 187.755 213.444 187.755 244.239C187.755 275.03 212.868 300.141 243.663 300.141C261.463 300.141 276.5 291.115 285.784 279.275C305.722 253.841 320.326 221.161 320.326 184.686C320.326 105.887 256.058 41.624 177.264 41.624C172.34 41.6199 167.468 41.8749 159.484 43.4853L159.478 43.4895Z" fill="#2E3848"/>
</svg>
