<svg width="127" height="99" viewBox="0 0 127 99" fill="none" xmlns="http://www.w3.org/2000/svg">
<path d="M125.116 33.0883L92.9622 0.928597C92.0557 0.0220652 90.6975 -0.249584 89.5116 0.241786C88.329 0.732054 87.5583 1.88703 87.5583 3.16689V18.2512H63.022C61.2741 18.2512 59.8564 19.67 59.8564 21.4168C59.8564 23.1647 61.2752 24.5825 63.022 24.5825H90.724C92.4719 24.5825 93.8896 23.1636 93.8896 21.4168V10.8109L118.4 35.3252L93.8896 59.8372V49.2293C93.8896 47.4813 92.4707 46.0636 90.724 46.0636H38.4634C38.4855 44.5443 38.4855 42.5998 38.4855 40.1021V30.976C38.4855 29.6951 37.7147 28.5412 36.5321 28.0509C35.3451 27.5584 33.9881 27.8289 33.0816 28.7377L0.927521 60.8917C-0.309173 62.1284 -0.309173 64.1326 0.927521 65.3681L33.0816 97.5278C33.6878 98.134 34.4971 98.4553 35.3198 98.4553C35.7283 98.4553 36.1402 98.3758 36.5322 98.2146C37.7148 97.7243 38.4855 96.5694 38.4855 95.2895V80.2007H63.0229C64.7709 80.2007 66.1886 78.7818 66.1886 77.0351C66.1886 75.2871 64.7697 73.8694 63.0229 73.8694H35.3187C33.5708 73.8694 32.1531 75.2883 32.1531 77.0351V77.0726C32.1542 77.4293 32.1564 82.8188 32.1564 87.6451L7.6444 63.1309L32.1553 38.62C32.1553 43.3514 32.1541 48.6272 32.1519 49.164C32.1475 49.3893 32.1674 49.6157 32.2116 49.842C32.5042 51.3271 33.806 52.3949 35.3176 52.3949H87.5583V67.4791C87.5583 68.76 88.3291 69.9139 89.5117 70.4042C90.6976 70.8934 92.0535 70.624 92.9623 69.7174L125.116 37.5634C126.353 36.3278 126.353 34.3237 125.116 33.087L125.116 33.0883Z" fill="white"/>
</svg>
